<mxfile host="Electron" modified="2023-10-28T07:56:46.396Z" agent="Mozilla/5.0 (Windows NT 10.0; Win64; x64) AppleWebKit/537.36 (KHTML, like Gecko) draw.io/21.6.8 Chrome/114.0.5735.289 Electron/25.5.0 Safari/537.36" etag="jMtpV9d6HWZr7c3bWCUM" version="21.6.8" type="device">
  <diagram name="Page-1" id="xIby0me0lejvJ_lJEcUN">
    <mxGraphModel dx="757" dy="571" grid="1" gridSize="10" guides="1" tooltips="1" connect="1" arrows="1" fold="1" page="1" pageScale="1" pageWidth="850" pageHeight="1100" math="0" shadow="0">
      <root>
        <mxCell id="0" />
        <mxCell id="1" parent="0" />
        <mxCell id="ODUg138CLwYr_B8xgHFm-1" value="«class»&lt;br&gt;&lt;b&gt;CCPU_Core&lt;/b&gt;" style="html=1;whiteSpace=wrap;fontFamily=Computer Modern;" vertex="1" parent="1">
          <mxGeometry x="380" y="360" width="110" height="50" as="geometry" />
        </mxCell>
        <mxCell id="ODUg138CLwYr_B8xgHFm-2" value="«interface»&lt;br&gt;&lt;b&gt;ICoprocessor&lt;/b&gt;" style="html=1;whiteSpace=wrap;fontFamily=Computer Modern;" vertex="1" parent="1">
          <mxGeometry x="380" y="460" width="110" height="50" as="geometry" />
        </mxCell>
        <mxCell id="ODUg138CLwYr_B8xgHFm-3" value="«class»&lt;br&gt;&lt;b&gt;CCP10&lt;/b&gt;" style="html=1;whiteSpace=wrap;fontFamily=Computer Modern;" vertex="1" parent="1">
          <mxGeometry x="180" y="460" width="110" height="50" as="geometry" />
        </mxCell>
        <mxCell id="ODUg138CLwYr_B8xgHFm-4" value="«class»&lt;br&gt;&lt;b&gt;CCP15&lt;/b&gt;" style="html=1;whiteSpace=wrap;fontFamily=Computer Modern;" vertex="1" parent="1">
          <mxGeometry x="580" y="460" width="110" height="50" as="geometry" />
        </mxCell>
        <mxCell id="ODUg138CLwYr_B8xgHFm-5" value="" style="endArrow=block;endSize=16;endFill=0;html=1;rounded=0;entryX=1;entryY=0.5;entryDx=0;entryDy=0;exitX=0;exitY=0.5;exitDx=0;exitDy=0;dashed=1;fontFamily=Computer Modern;" edge="1" parent="1" source="ODUg138CLwYr_B8xgHFm-4" target="ODUg138CLwYr_B8xgHFm-2">
          <mxGeometry width="160" relative="1" as="geometry">
            <mxPoint x="240" y="540" as="sourcePoint" />
            <mxPoint x="400" y="540" as="targetPoint" />
          </mxGeometry>
        </mxCell>
        <mxCell id="ODUg138CLwYr_B8xgHFm-7" value="" style="endArrow=diamondThin;endFill=0;endSize=24;html=1;rounded=0;entryX=0.5;entryY=1;entryDx=0;entryDy=0;fontFamily=Computer Modern;" edge="1" parent="1" source="ODUg138CLwYr_B8xgHFm-2" target="ODUg138CLwYr_B8xgHFm-1">
          <mxGeometry width="160" relative="1" as="geometry">
            <mxPoint x="250" y="520" as="sourcePoint" />
            <mxPoint x="410" y="520" as="targetPoint" />
          </mxGeometry>
        </mxCell>
        <mxCell id="ODUg138CLwYr_B8xgHFm-8" value="&amp;lt;&amp;lt;implements&amp;gt;&amp;gt;" style="text;html=1;strokeColor=none;fillColor=none;align=center;verticalAlign=middle;whiteSpace=wrap;rounded=0;fontFamily=Computer Modern;" vertex="1" parent="1">
          <mxGeometry x="506" y="450" width="60" height="30" as="geometry" />
        </mxCell>
        <mxCell id="ODUg138CLwYr_B8xgHFm-9" value="1" style="text;html=1;strokeColor=none;fillColor=none;align=center;verticalAlign=middle;whiteSpace=wrap;rounded=0;fontFamily=Computer Modern;" vertex="1" parent="1">
          <mxGeometry x="446" y="416" width="15" height="10" as="geometry" />
        </mxCell>
        <mxCell id="ODUg138CLwYr_B8xgHFm-11" value="N" style="text;html=1;strokeColor=none;fillColor=none;align=center;verticalAlign=middle;whiteSpace=wrap;rounded=0;fontFamily=Computer Modern;" vertex="1" parent="1">
          <mxGeometry x="446" y="446" width="15" height="10" as="geometry" />
        </mxCell>
        <mxCell id="ODUg138CLwYr_B8xgHFm-12" value="" style="endArrow=block;endSize=16;endFill=0;html=1;rounded=0;entryX=0;entryY=0.5;entryDx=0;entryDy=0;exitX=1;exitY=0.5;exitDx=0;exitDy=0;dashed=1;fontFamily=Computer Modern;" edge="1" parent="1" source="ODUg138CLwYr_B8xgHFm-3" target="ODUg138CLwYr_B8xgHFm-2">
          <mxGeometry width="160" relative="1" as="geometry">
            <mxPoint x="550" y="495" as="sourcePoint" />
            <mxPoint x="500" y="495" as="targetPoint" />
          </mxGeometry>
        </mxCell>
        <mxCell id="ODUg138CLwYr_B8xgHFm-13" value="&amp;lt;&amp;lt;implements&amp;gt;&amp;gt;" style="text;html=1;strokeColor=none;fillColor=none;align=center;verticalAlign=middle;whiteSpace=wrap;rounded=0;fontFamily=Computer Modern;" vertex="1" parent="1">
          <mxGeometry x="305" y="450" width="60" height="30" as="geometry" />
        </mxCell>
      </root>
    </mxGraphModel>
  </diagram>
</mxfile>
